# xmcd
#
# Track frame offsets:
#  150
#  2746
#  13284
#  33841
#  65777
#  82630
#  96162
#  112218
#  131577
#  152253
#  175261
#  196874
#  207459
#  219883
#  233410
#  249508
#  266324
#  277317
#  294495
#  309057
#  319008
#  329552
#
# Disc length: 4619 seconds
#
# Revision: 0
# Processed by: cddbd v1.5.1PL2 Copyright (c) Steve Scherf et al.
# Submitted via: Collectorz.com_Music_Collector 6.9
#
DISCID=2d120916
DTITLE=Doug Kershaw - Alive and Pickin'/Louisiana Man
DYEAR=2005
DGENRE=
TTITLE0=Introduction
TTITLE1=Diggy Liggy Lo
TTITLE2=Battle of New Orleans
TTITLE3=Medley: Orange Blossom Special/You Are My Sunshine
TTITLE4=Natural Man
TTITLE5=Alive and Pickin'
TTITLE6=Cajun Joe (The Bully of the Bayou)
TTITLE7=Cajun Stripper
TTITLE8=Dixie Creole
TTITLE9=Louisiana Man
TTITLE10=Uncle Pen
TTITLE11=Jambalaya (On the Bayou)
TTITLE12=Louisiana Man
TTITLE13=Marie
TTITLE14=Pourquoi M'Aimes-Tu Pas?
TTITLE15=Subterranean Homesick Blues
TTITLE16=I Just Want to Feel the Magic
TTITLE17=Hardly Anymore
TTITLE18=French Waltz
TTITLE19=If You Don't, Somebody Else Will
TTITLE20=Sooner I Go
TTITLE21=Louisiana Sun
EXTD=
EXTT0=
EXTT1=
EXTT2=
EXTT3=
EXTT4=
EXTT5=
EXTT6=
EXTT7=
EXTT8=
EXTT9=
EXTT10=
EXTT11=
EXTT12=
EXTT13=
EXTT14=
EXTT15=
EXTT16=
EXTT17=
EXTT18=
EXTT19=
EXTT20=
EXTT21=
PLAYORDER=
